<?xml version="1.0" encoding="iso-8859-1"?>
<!-- Generator: Adobe Illustrator 19.0.0, SVG Export Plug-In . SVG Version: 6.00 Build 0)  -->
<!-- License: CC0. Made by SVG Repo: https://www.svgrepo.com/svg/84640/half-moon -->
<svg version="1.1" id="Layer_1" xmlns="http://www.w3.org/2000/svg" xmlns:xlink="http://www.w3.org/1999/xlink" x="0px" y="0px"
	 viewBox="0 0 330 330" style="enable-background:new 0 0 330 330;" xml:space="preserve">
<path id="XMLID_495_" d="M285.011,281.944C243.369,257.854,217.5,213.044,217.5,165s25.869-92.854,67.511-116.944
	c4.635-2.681,7.489-7.63,7.489-12.984c0-5.354-2.854-10.303-7.489-12.984C260.03,7.638,231.499,0,202.5,0
	c-90.981,0-165,74.019-165,165s74.019,165,165,165c28.999,0,57.53-7.638,82.511-22.087c4.635-2.681,7.489-7.63,7.489-12.984
	C292.5,289.574,289.646,284.625,285.011,281.944z M202.5,300c-74.439,0-135-60.561-135-135s60.561-135,135-135
	c15.402,0,30.641,2.631,45.023,7.707c-14.809,12.228-27.459,26.998-37.257,43.618C195.372,106.588,187.5,135.523,187.5,165
	s7.872,58.412,22.766,83.676c9.798,16.62,22.448,31.39,37.257,43.618C233.141,297.369,217.902,300,202.5,300z"/>
</svg>
