<?xml version="1.0" encoding="utf-8"?>
<!-- Generator: Adobe Illustrator 22.0.1, SVG Export Plug-In . SVG Version: 6.00 Build 0)  -->
<svg version="1.1" id="Layer_1" xmlns="http://www.w3.org/2000/svg" xmlns:xlink="http://www.w3.org/1999/xlink" x="0px" y="0px"
	 viewBox="0 0 300 300" style="enable-background:new 0 0 300 300;" xml:space="preserve">
<style type="text/css">
	.st0{fill:#E74E0F;}
	.st1{fill:#D44B16;}
	.st2{fill:#F9BD00;}
	.st3{fill:#ED7700;}
	.st4{fill:#FFE0A2;}
	.st5{fill:#A87637;}
	.st6{fill:#FFECBC;}
	.st7{fill:#FBCB8F;}
</style>
<g>
	<g>
		<path class="st0" d="M253.6,90.3c-2.9-13.1-8.2-25.2-16.1-36.5c-9.8-13.9-22.6-23.4-38.5-28.7c-9.3-3.1-21-4.7-35-4.9H66.7
			l0.5,118.3l9.9-29.7l7.7,32.9l10-24l12.5,28.7V59.5h48.7c21.5,0,35.8,6.2,43,18.5c7.2,12.3,10.8,30,10.8,52.9
			c0,16.6-2.4,31-7.2,43.1c-8.8,22-24.3,32.9-46.6,32.9h-30v39.2h38c34.1,0,59.4-14,75.7-42.1c12.1-20.8,18.1-46.3,18.1-76.3
			C257.9,115.8,256.5,103.4,253.6,90.3z"/>
	</g>
	<g>
		<polygon class="st1" points="95.3,249.2 107.4,246.1 107.4,166.2 95.2,137.9 95.2,249.2 		"/>
		<polygon class="st2" points="66.7,164.9 67.6,246.1 79.1,249.2 79.1,152.2 75.8,137.9 		"/>
		<polygon class="st3" points="79.7,249.2 95.2,249.2 95.2,137.9 95,137.9 79.1,175.9 79.1,249.2 		"/>
		<polygon class="st4" points="86.8,280.3 107.4,246.1 97.1,249.2 79.1,249.2 67.6,246.1 		"/>
		<polygon class="st5" points="94.9,266.8 79.1,266.8 87,283 		"/>
		<polygon class="st6" points="83.9,266.8 79.1,249.2 67.6,246.1 79.1,266.8 		"/>
		<polygon class="st7" points="91.1,266.8 95.3,249.2 105.3,246.7 107.4,246.1 94.9,266.8 94.5,266.8 		"/>
	</g>
</g>
</svg>
